<?xml version="1.0" encoding="UTF-8" standalone="no"?><!DOCTYPE svg PUBLIC "-//W3C//DTD SVG 1.1//EN" "http://www.w3.org/Graphics/SVG/1.1/DTD/svg11.dtd"><svg width="100%" height="100%" viewBox="0 0 250 250" version="1.1" xmlns="http://www.w3.org/2000/svg" xmlns:xlink="http://www.w3.org/1999/xlink" xml:space="preserve" xmlns:serif="http://www.serif.com/" style="fill-rule:evenodd;clip-rule:evenodd;stroke-linecap:round;"><path d="M58.333,41.667l0,16.667c0,4.599 -3.734,8.333 -8.333,8.333l-16.667,0c-4.599,0 -8.333,-3.734 -8.333,-8.333l0,-16.667c0,-4.599 3.734,-8.333 8.333,-8.333l16.667,0c4.599,0 8.333,3.734 8.333,8.333Z" style="fill:#fbbf24;"/><path d="M100,58.333l0,16.667c0,4.599 -3.734,8.333 -8.333,8.333l-16.667,0c-4.599,0 -8.333,-3.734 -8.333,-8.333l0,-16.667c0,-4.599 3.734,-8.333 8.333,-8.333l16.667,0c4.599,0 8.333,3.734 8.333,8.333Z" style="fill:#34d399;"/><path d="M58.333,100l0,16.667c0,4.599 -3.734,8.333 -8.333,8.333l-16.667,0c-4.599,0 -8.333,-3.734 -8.333,-8.333l0,-16.667c0,-4.599 3.734,-8.333 8.333,-8.333l16.667,0c4.599,0 8.333,3.734 8.333,8.333Z" style="fill:#fbbf24;"/><path d="M100,116.667l0,16.667c0,4.599 -3.734,8.333 -8.333,8.333l-16.667,0c-4.599,0 -8.333,-3.734 -8.333,-8.333l0,-16.667c0,-4.599 3.734,-8.333 8.333,-8.333l16.667,0c4.599,0 8.333,3.734 8.333,8.333Z" style="fill:#f87171;"/><path d="M58.333,158.333l0,16.667c0,4.599 -3.734,8.333 -8.333,8.333l-16.667,0c-4.599,0 -8.333,-3.734 -8.333,-8.333l0,-16.667c0,-4.599 3.734,-8.333 8.333,-8.333l16.667,0c4.599,0 8.333,3.734 8.333,8.333Z" style="fill:#34d399;"/><path d="M100,175l0,16.667c0,4.599 -3.734,8.333 -8.333,8.333l-16.667,0c-4.599,0 -8.333,-3.734 -8.333,-8.333l0,-16.667c0,-4.599 3.734,-8.333 8.333,-8.333l16.667,0c4.599,0 8.333,3.734 8.333,8.333Z" style="fill:#f87171;"/><path d="M116.667,125l41.667,0" style="fill:none;fill-rule:nonzero;stroke:#092bd6;stroke-width:8.33px;"/><path d="M145.833,108.333l16.667,16.667l-16.667,16.667" style="fill:none;fill-rule:nonzero;stroke:#092bd6;stroke-width:8.33px;stroke-linejoin:round;"/><g><path d="M225,33.333l0,41.667c0,4.599 -3.734,8.333 -8.333,8.333l-33.333,0c-4.599,0 -8.333,-3.734 -8.333,-8.333l0,-41.667c0,-4.599 3.734,-8.333 8.333,-8.333l33.333,0c4.599,0 8.333,3.734 8.333,8.333Z" style="fill:#fff;fill-opacity:0.2;"/><path d="M216.667,37.5l0,8.333c0,2.3 -1.867,4.167 -4.167,4.167l-25,0c-2.3,0 -4.167,-1.867 -4.167,-4.167l0,-8.333c0,-2.3 1.867,-4.167 4.167,-4.167l25,0c2.3,0 4.167,1.867 4.167,4.167Z" style="fill:#fbbf24;"/><path d="M216.667,62.5l0,8.333c0,2.3 -1.867,4.167 -4.167,4.167l-25,0c-2.3,0 -4.167,-1.867 -4.167,-4.167l0,-8.333c0,-2.3 1.867,-4.167 4.167,-4.167l25,0c2.3,0 4.167,1.867 4.167,4.167Z" style="fill:#fbbf24;"/></g><g><path d="M225,104.167l0,41.667c0,4.599 -3.734,8.333 -8.333,8.333l-33.333,0c-4.599,0 -8.333,-3.734 -8.333,-8.333l0,-41.667c0,-4.599 3.734,-8.333 8.333,-8.333l33.333,0c4.599,0 8.333,3.734 8.333,8.333Z" style="fill:#fff;fill-opacity:0.2;"/><path d="M216.667,108.333l0,8.333c0,2.3 -1.867,4.167 -4.167,4.167l-25,0c-2.3,0 -4.167,-1.867 -4.167,-4.167l0,-8.333c0,-2.3 1.867,-4.167 4.167,-4.167l25,0c2.3,0 4.167,1.867 4.167,4.167Z" style="fill:#34d399;"/><path d="M216.667,133.333l0,8.333c0,2.3 -1.867,4.167 -4.167,4.167l-25,0c-2.3,0 -4.167,-1.867 -4.167,-4.167l0,-8.333c0,-2.3 1.867,-4.167 4.167,-4.167l25,0c2.3,0 4.167,1.867 4.167,4.167Z" style="fill:#34d399;"/></g><g><path d="M225,175l0,41.667c0,4.599 -3.734,8.333 -8.333,8.333l-33.333,0c-4.599,0 -8.333,-3.734 -8.333,-8.333l0,-41.667c0,-4.599 3.734,-8.333 8.333,-8.333l33.333,0c4.599,0 8.333,3.734 8.333,8.333Z" style="fill:#fff;fill-opacity:0.2;"/><path d="M216.667,179.167l0,8.333c0,2.3 -1.867,4.167 -4.167,4.167l-25,0c-2.3,0 -4.167,-1.867 -4.167,-4.167l0,-8.333c0,-2.3 1.867,-4.167 4.167,-4.167l25,0c2.3,0 4.167,1.867 4.167,4.167Z" style="fill:#f87171;"/><path d="M216.667,204.167l0,8.333c0,2.3 -1.867,4.167 -4.167,4.167l-25,0c-2.3,0 -4.167,-1.867 -4.167,-4.167l0,-8.333c0,-2.3 1.867,-4.167 4.167,-4.167l25,0c2.3,0 4.167,1.867 4.167,4.167Z" style="fill:#f87171;"/></g></svg>