<svg xmlns="http://www.w3.org/2000/svg" viewBox="0 0 60 60" fill="none">
  <rect width="60" height="60" rx="8" fill="#6366f1"/>
  
  <!-- Input items (scattered) -->
  <rect x="6" y="8" width="8" height="8" rx="2" fill="#fbbf24"/>
  <rect x="16" y="12" width="8" height="8" rx="2" fill="#34d399"/>
  <rect x="6" y="22" width="8" height="8" rx="2" fill="#fbbf24"/>
  <rect x="16" y="26" width="8" height="8" rx="2" fill="#f87171"/>
  <rect x="6" y="36" width="8" height="8" rx="2" fill="#34d399"/>
  <rect x="16" y="40" width="8" height="8" rx="2" fill="#f87171"/>
  
  <!-- Arrow -->
  <path d="M28 30 L38 30" stroke="white" stroke-width="2" stroke-linecap="round"/>
  <path d="M35 26 L39 30 L35 34" stroke="white" stroke-width="2" stroke-linecap="round" stroke-linejoin="round"/>
  
  <!-- Output groups (organized) -->
  <g transform="translate(42, 6)">
    <rect width="12" height="14" rx="2" fill="white" fill-opacity="0.2"/>
    <rect x="2" y="2" width="8" height="4" rx="1" fill="#fbbf24"/>
    <rect x="2" y="8" width="8" height="4" rx="1" fill="#fbbf24"/>
  </g>
  
  <g transform="translate(42, 23)">
    <rect width="12" height="14" rx="2" fill="white" fill-opacity="0.2"/>
    <rect x="2" y="2" width="8" height="4" rx="1" fill="#34d399"/>
    <rect x="2" y="8" width="8" height="4" rx="1" fill="#34d399"/>
  </g>
  
  <g transform="translate(42, 40)">
    <rect width="12" height="14" rx="2" fill="white" fill-opacity="0.2"/>
    <rect x="2" y="2" width="8" height="4" rx="1" fill="#f87171"/>
    <rect x="2" y="8" width="8" height="4" rx="1" fill="#f87171"/>
  </g>
</svg>
