<?xml version="1.0" encoding="UTF-8" standalone="no"?>
<!DOCTYPE svg PUBLIC "-//W3C//DTD SVG 1.1//EN" "http://www.w3.org/Graphics/SVG/1.1/DTD/svg11.dtd">
<svg width="100%" height="100%" viewBox="0 0 512 512" version="1.1" xmlns="http://www.w3.org/2000/svg" xmlns:xlink="http://www.w3.org/1999/xlink" xml:space="preserve" xmlns:serif="http://www.serif.com/" style="fill-rule:evenodd;clip-rule:evenodd;stroke-linecap:round;">
    <g transform="matrix(1,0,0,1,-0.133333,-4.733333)">
        <g transform="matrix(10.133333,0,0,10.133333,-37.733333,-43.266667)">
            <path d="M14,8.197L14,15.803C14,15.912 13.912,16 13.803,16L6.197,16C6.088,16 6,15.912 6,15.803L6,8.197C6,8.088 6.088,8 6.197,8L13.803,8C13.912,8 14,8.088 14,8.197Z" style="fill:rgb(251,191,36);"/>
        </g>
        <g transform="matrix(10.133333,0,0,10.133333,-37.733333,-43.266667)">
            <path d="M24,12.197L24,19.803C24,19.912 23.912,20 23.803,20L16.197,20C16.088,20 16,19.912 16,19.803L16,12.197C16,12.088 16.088,12 16.197,12L23.803,12C23.912,12 24,12.088 24,12.197Z" style="fill:rgb(52,211,153);"/>
        </g>
        <g transform="matrix(10.133333,0,0,10.133333,-37.733333,-43.266667)">
            <path d="M14,22.197L14,29.803C14,29.912 13.912,30 13.803,30L6.197,30C6.088,30 6,29.912 6,29.803L6,22.197C6,22.088 6.088,22 6.197,22L13.803,22C13.912,22 14,22.088 14,22.197Z" style="fill:rgb(251,191,36);"/>
        </g>
        <g transform="matrix(10.133333,0,0,10.133333,-37.733333,-43.266667)">
            <path d="M24,26.197L24,33.803C24,33.912 23.912,34 23.803,34L16.197,34C16.088,34 16,33.912 16,33.803L16,26.197C16,26.088 16.088,26 16.197,26L23.803,26C23.912,26 24,26.088 24,26.197Z" style="fill:rgb(248,113,113);"/>
        </g>
        <g transform="matrix(10.133333,0,0,10.133333,-37.733333,-43.266667)">
            <path d="M14,36.197L14,43.803C14,43.912 13.912,44 13.803,44L6.197,44C6.088,44 6,43.912 6,43.803L6,36.197C6,36.088 6.088,36 6.197,36L13.803,36C13.912,36 14,36.088 14,36.197Z" style="fill:rgb(52,211,153);"/>
        </g>
        <g transform="matrix(10.133333,0,0,10.133333,-37.733333,-43.266667)">
            <path d="M24,40.197L24,47.803C24,47.912 23.912,48 23.803,48L16.197,48C16.088,48 16,47.912 16,47.803L16,40.197C16,40.088 16.088,40 16.197,40L23.803,40C23.912,40 24,40.088 24,40.197Z" style="fill:rgb(248,113,113);"/>
        </g>
        <g transform="matrix(10.133333,0,0,10.133333,-37.733333,-43.266667)">
            <path d="M28,30L38,30" style="fill:none;fill-rule:nonzero;stroke:rgb(9,43,214);stroke-width:2px;"/>
        </g>
        <g transform="matrix(10.133333,0,0,10.133333,-37.733333,-43.266667)">
            <path d="M35,26L39,30L35,34" style="fill:none;fill-rule:nonzero;stroke:rgb(9,43,214);stroke-width:2px;stroke-linejoin:round;"/>
        </g>
        <g transform="matrix(10.133333,0,0,10.133333,387.866667,17.533333)">
            <path d="M10,2.099L10,5.901C10,5.956 9.956,6 9.901,6L2.099,6C2.044,6 2,5.956 2,5.901L2,2.099C2,2.044 2.044,2 2.099,2L9.901,2C9.956,2 10,2.044 10,2.099Z" style="fill:rgb(251,191,36);"/>
        </g>
        <g transform="matrix(10.133333,0,0,10.133333,387.866667,17.533333)">
            <path d="M10,8.099L10,11.901C10,11.956 9.956,12 9.901,12L2.099,12C2.044,12 2,11.956 2,11.901L2,8.099C2,8.044 2.044,8 2.099,8L9.901,8C9.956,8 10,8.044 10,8.099Z" style="fill:rgb(251,191,36);"/>
        </g>
        <g transform="matrix(10.133333,0,0,10.133333,387.866667,189.8)">
            <path d="M10,2.099L10,5.901C10,5.956 9.956,6 9.901,6L2.099,6C2.044,6 2,5.956 2,5.901L2,2.099C2,2.044 2.044,2 2.099,2L9.901,2C9.956,2 10,2.044 10,2.099Z" style="fill:rgb(52,211,153);"/>
        </g>
        <g transform="matrix(10.133333,0,0,10.133333,387.866667,189.8)">
            <path d="M10,8.099L10,11.901C10,11.956 9.956,12 9.901,12L2.099,12C2.044,12 2,11.956 2,11.901L2,8.099C2,8.044 2.044,8 2.099,8L9.901,8C9.956,8 10,8.044 10,8.099Z" style="fill:rgb(52,211,153);"/>
        </g>
        <g transform="matrix(10.133333,0,0,10.133333,387.866667,362.066667)">
            <path d="M10,2.099L10,5.901C10,5.956 9.956,6 9.901,6L2.099,6C2.044,6 2,5.956 2,5.901L2,2.099C2,2.044 2.044,2 2.099,2L9.901,2C9.956,2 10,2.044 10,2.099Z" style="fill:rgb(248,113,113);"/>
        </g>
        <g transform="matrix(10.133333,0,0,10.133333,387.866667,362.066667)">
            <path d="M10,8.099L10,11.901C10,11.956 9.956,12 9.901,12L2.099,12C2.044,12 2,11.956 2,11.901L2,8.099C2,8.044 2.044,8 2.099,8L9.901,8C9.956,8 10,8.044 10,8.099Z" style="fill:rgb(248,113,113);"/>
        </g>
    </g>
</svg>
